<?xml version="1.0" encoding="utf-8"?>
<!-- Generator: Adobe Illustrator 16.0.0, SVG Export Plug-In . SVG Version: 6.00 Build 0)  -->
<!DOCTYPE svg PUBLIC "-//W3C//DTD SVG 1.1//EN" "http://www.w3.org/Graphics/SVG/1.1/DTD/svg11.dtd">
<svg version="1.1" id="Layer_1" xmlns="http://www.w3.org/2000/svg" xmlns:xlink="http://www.w3.org/1999/xlink" x="0px" y="0px"
	 width="1000px" height="136.908px" viewBox="0 0 1000 136.908" enable-background="new 0 0 1000 136.908" xml:space="preserve">
<linearGradient id="SVGID_1_" gradientUnits="userSpaceOnUse" x1="500" y1="136.9082" x2="500" y2="4.882813e-004">
	<stop  offset="0" style="stop-color:#C53C95"/>
	<stop  offset="1" style="stop-color:#5B0459"/>
</linearGradient>
<path fill="url(#SVGID_1_)" d="M0,134.401v-1.66c0.152-0.542,0.314-1.063,0.413-1.605c3.852-21.518,7.671-43.046,11.513-64.553
	c3.754-20.976,7.53-41.94,11.241-62.915c0.261-1.454,0.847-1.834,2.257-1.834c17.124,0.044,34.246,0.044,51.369,0
	c1.356-0.011,1.932,0.467,2.366,1.704c6.293,18.023,12.631,36.047,18.957,54.07c0.379,1.074,0.781,2.127,1.193,3.256
	c0.607-0.489,0.629-1.074,0.803-1.573c6.456-18.61,12.902-37.23,19.314-55.862c0.391-1.117,0.89-1.595,2.148-1.595
	c17.08,0.044,34.16,0.044,51.239,0c1.204,0,1.725,0.391,1.931,1.563c1.085,6.239,2.235,12.457,3.364,18.696
	c2.886,15.951,5.784,31.913,8.691,47.875c3.006,16.592,6.044,33.183,9.061,49.773c0.564,3.027,1.117,6.056,1.66,9.072
	c0.065-0.011,0.141-0.021,0.206-0.021v-1.802c0-40.767,0-81.546,0-122.324c0-0.553,0.011-1.106,0.011-1.671
	c0-0.781,0.358-1.161,1.193-1.14c1.389,0.033,2.778,0,4.167,0c30.502,0,61.005,0.011,91.507,0c1.063,0,1.997-0.108,1.985,1.486
	c-0.032,11.188-0.021,22.386,0,33.596c0,1.161-0.466,1.605-1.584,1.486c-0.369-0.043-0.738-0.011-1.118-0.011
	c-13.412,0-26.834,0-40.257,0c-1.943,0-1.943,0-1.943,1.996c0,2.821,0,5.643,0,8.464c0,1.845,0,1.845,1.823,1.845
	c12.359,0,24.708,0,37.067,0c2.105,0,2.116,0,2.116,2.04c0,10.189,0,20.368,0,30.546c0,2.041-0.01,2.052-2.104,2.052
	c-12.447,0-24.903,0.01-37.35-0.022c-1.215-0.011-1.606,0.348-1.584,1.573c0.076,3.094,0.098,6.207,0,9.3
	c-0.043,1.422,0.412,1.801,1.801,1.801c17.221-0.054,34.431-0.054,51.651,0.012c1.368,0,1.953-0.5,2.398-1.715
	c1.942-5.241,3.971-10.46,5.979-15.68c9.842-25.598,19.684-51.207,29.472-76.826c0.564-1.508,1.302-1.985,2.908-1.975
	c18.328,0.055,36.655,0.055,54.982,0c1.508,0,2.181,0.51,2.713,1.866c4.937,12.62,9.917,25.218,14.888,37.838
	c8.854,22.451,17.698,44.924,26.563,67.374c1.421,3.604,2.865,7.184,4.286,10.765c0.065-0.011,0.13-0.021,0.195-0.044v-1.616
	c0-38.044,0-76.088,0-114.132c0-2.008,0.011-2.008,1.953-2.008c15.93-0.011,31.848,0,47.777-0.032c1.161,0,1.834,0.412,2.452,1.367
	c14.247,22.201,28.518,44.381,42.786,66.561c0.206,0.304,0.314,0.738,0.847,0.923c0-0.607,0-1.118,0-1.617
	c0-21.757,0-43.502,0-65.259c0-1.942,0.01-1.942,1.898-1.942c15.832-0.011,31.663-0.011,47.495,0c1.813,0,1.845,0.022,1.845,1.867
	c0,42.959,0,85.908,0,128.845c0,1.921-0.011,1.921-1.932,1.921c-15.69,0-31.381-0.021-47.072,0.055
	c-1.573,0-2.484-0.521-3.363-1.801c-13.704-20.39-27.453-40.757-41.19-61.124c-0.728-1.085-1.487-2.138-2.236-3.202
	c-0.249,0.608-0.249,1.107-0.249,1.606c0.064,20.736,0.13,41.462,0.185,62.198c0,0.228-0.021,0.467,0.011,0.694
	c0.195,1.227-0.325,1.596-1.541,1.596c-33.085-0.022-66.17-0.022-99.276,0c-1.064,0-1.541-0.358-1.834-1.389
	c-1.292-4.525-2.681-9.039-3.961-13.575c-0.304-1.074-0.77-1.476-1.92-1.465c-12.349,0.032-24.708,0.032-37.067,0
	c-1.085,0-1.53,0.369-1.791,1.4c-1.053,4.264-2.192,8.506-3.288,12.771c-0.672,2.582-0.434,2.234-2.93,2.234
	c-65.584,0-131.157,0-196.741,0c-0.749,0-1.487-0.054-2.224,0.012c-1.172,0.13-1.53-0.467-1.584-1.53
	c-0.065-1.335-0.25-2.669-0.391-4.004c-0.694-6.468-1.411-12.935-2.105-19.413c-0.684-6.435-1.346-12.869-2.04-19.304
	c-0.694-6.565-1.421-13.151-2.138-19.716c-0.261-2.377-0.532-4.765-0.792-7.141c-1.042,2.408-1.866,4.807-2.702,7.205
	c-7.184,20.715-14.356,41.43-21.496,62.166c-0.456,1.313-1.053,1.779-2.453,1.758c-9.256-0.055-18.512-0.065-27.768,0
	c-1.378,0.021-1.921-0.467-2.311-1.726c-1.172-3.896-2.496-7.747-3.766-11.611c-4.948-15.169-9.885-30.339-14.844-45.509
	c-1.346-4.102-2.702-8.215-4.156-12.663c-0.413,3.473-0.803,6.576-1.14,9.689c-1.15,10.472-2.268,20.943-3.439,31.425
	c-1.053,9.495-2.149,19.001-3.234,28.506c-0.195,1.846-0.185,1.855-2.062,1.855c-16.06,0-32.13,0-48.179,0
	C1.02,134.499,0.51,134.435,0,134.401 M374.037,47.138c-0.206,0.477-0.314,0.661-0.391,0.879
	c-3.332,12.337-6.652,24.696-10.016,37.046c-0.304,1.106,0.108,1.236,1.053,1.227c6.011-0.022,12.023-0.044,18.035,0.01
	c1.302,0.011,1.421-0.391,1.117-1.52c-2.354-8.886-4.644-17.784-6.966-26.693C375.946,54.537,375.024,50.968,374.037,47.138
	 M675.925,136.908c1.366-0.173,2.745-0.314,4.111-0.521c13.271-2.073,25.034-7.411,34.952-16.548
	c7.694-7.075,13.206-15.55,16.006-25.685c2.225-8.02,2.604-16.212,2.538-24.47c-0.021-1.442-0.498-1.769-1.854-1.769
	c-17.265,0.033-34.518,0.033-51.782,0c-1.323,0-1.801,0.38-1.769,1.726c0.076,3.418,0.022,6.836,0.022,10.275
	c0.01,2.084,0.01,2.084,2.05,2.084c11.894,0.011,23.775,0.021,35.68-0.021c1.149,0,1.485,0.282,1.442,1.465
	c-0.217,6.065-1.932,11.665-5.024,16.841c-5.013,8.366-12.229,14.269-21.072,18.208c-8.866,3.971-18.1,5.49-27.746,3.906
	c-8.518-1.41-16.189-4.915-23.048-10.08c-16.603-12.501-24.22-29.179-22.071-49.894c1.454-13.868,7.65-25.598,18.057-34.94
	c10.287-9.234,22.353-13.824,36.231-13.618c9.375,0.13,18.1,2.495,26.097,7.378c6.891,4.222,12.479,9.843,17.188,16.342
	c0.771,1.074,1.259,1.021,2.115,0.186c2.865-2.757,5.751-5.491,8.703-8.172c0.857-0.78,0.824-1.334,0.141-2.181
	c-2.419-2.984-4.958-5.859-7.737-8.529c-8.518-8.148-18.381-13.943-29.839-16.927C685.647,1.01,681.903,0.488,678.149,0h-12.501
	c-0.912,0.152-1.823,0.305-2.734,0.412c-13.597,1.759-25.75,6.935-35.917,16.093c-20.259,18.208-27.877,40.843-22.276,67.603
	c2.451,11.74,8.192,21.941,16.319,30.763c8.768,9.516,19.369,16.092,31.826,19.662c4.188,1.193,8.464,1.844,12.782,2.376H675.925z
	 M958.898,136.908c4.396-0.607,8.747-1.367,12.913-2.995c13.336-5.165,22.972-14.03,26.737-28.115
	c2.799-10.471,1.79-20.584-5.154-29.471c-3.993-5.1-9.256-8.605-14.888-11.59c-7.336-3.884-15.137-6.694-22.787-9.82
	c-5.285-2.159-10.558-4.286-15.214-7.649c-3.461-2.485-6.391-5.469-7.303-9.788c-1.216-5.74,0.238-10.959,4.08-15.365
	c4.808-5.522,11.079-7.953,18.296-8.225c6.575-0.238,12.718,0.998,18.012,5.133c2.8,2.181,5.111,4.839,7.01,7.823
	c0.684,1.063,1.227,1.346,2.398,0.629c3.418-2.104,6.891-4.145,10.406-6.108c1.183-0.651,1.183-1.216,0.499-2.235
	c-6.239-9.495-14.931-15.484-25.966-18.089c-1.878-0.435-3.81-0.694-5.709-1.042h-10.558c-0.955,0.163-1.909,0.314-2.864,0.467
	c-9.376,1.584-17.709,5.252-24.317,12.294c-6.435,6.869-8.931,15.105-8.063,24.361c0.781,8.366,4.948,14.898,11.545,19.933
	c6.393,4.895,13.684,8.063,21.063,11.058c6.978,2.854,14.096,5.394,20.726,9.039c4.515,2.475,8.605,5.48,11.155,10.113
	c4.514,8.149,2.756,19.229-4.188,26.271c-6.392,6.479-14.216,9.462-23.254,9.44c-13.934-0.032-25.467-9.343-28.3-22.982
	c-0.282-1.367-0.803-1.497-1.975-1.184c-4.146,1.118-8.323,2.16-12.479,3.245c-2.007,0.51-2.04,0.521-1.497,2.441
	c4.231,14.964,13.738,24.947,28.44,30.003c3.744,1.281,7.618,1.855,11.514,2.409H958.898z M768.115,68.373
	c0-21.139,0-42.298,0-63.446c0-0.51,0.022-1.021,0.011-1.53c-0.032-0.933,0.38-1.302,1.335-1.28c2.181,0.043,4.362,0,6.532,0.011
	c6.337,0.011,12.685-0.13,19.012,0.076c9.386,0.314,18.642,1.454,27.388,5.133c12.12,5.089,18.858,14.095,20.009,27.279
	c0.728,8.551-0.641,16.613-5.284,23.938c-5.197,8.203-12.891,12.924-22.125,15.387c-2.365,0.641-4.774,1.086-7.216,1.313
	c-1.433,0.142-1.063,0.62-0.467,1.368c3.711,4.73,7.4,9.484,11.101,14.236c10.992,14.128,21.984,28.256,32.977,42.406
	c0.293,0.368,0.9,0.76,0.606,1.27c-0.248,0.488-0.922,0.239-1.41,0.249c-5.556,0.012-11.11-0.021-16.656,0.033
	c-1.139,0.011-1.866-0.348-2.539-1.259c-11.209-14.91-22.451-29.786-33.682-44.663c-2.82-3.733-5.632-7.455-8.452-11.188
	c-0.63-0.846-3.126-1.356-4.037-0.868c-0.348,0.185-0.413,0.488-0.424,0.803c-0.021,0.521-0.021,1.031-0.021,1.541
	c0,17.764,0,35.537,0,53.312c0,2.289-0.012,2.289-2.279,2.289c-4.015,0-8.041,0-12.077,0c-2.29,0-2.301,0-2.301-2.257
	c0-18.229,0-36.47,0-54.7V68.373z M791.695,16.201c-1.758,0-3.517,0.064-5.264-0.021c-1.292-0.076-1.693,0.379-1.682,1.648
	c0.032,14.584,0.032,29.146-0.012,43.73c0,1.432,0.511,1.834,1.867,1.79c4.112-0.13,8.225,0,12.338-0.369
	c4.579-0.401,9.071-1.128,13.39-2.767c5.394-2.051,9.701-5.35,12.002-10.84c1.671-4.016,1.963-8.236,1.616-12.533
	c-0.271-3.527-1.117-6.934-2.983-9.994c-3.114-5.089-7.998-7.552-13.51-8.952C803.63,16.429,797.674,16.136,791.695,16.201
	 M855.043,104.54c0,9.494,0.012,18.968-0.011,28.462c0,1.085,0.087,1.813,1.541,1.813c17.861-0.043,35.722-0.033,53.583-0.012
	c1.161,0,1.541-0.423,1.529-1.54c-0.032-3.462-0.01-6.934-0.01-10.406c0-2.138-0.012-2.148-2.149-2.148
	c-12.034,0-24.067-0.011-36.101,0.021c-1.292,0.012-1.921-0.324-1.748-1.692c0.055-0.411,0.012-0.834,0.012-1.258
	c0-37.664,0-75.34,0-113.004c0-0.554-0.012-1.117-0.022-1.671c-0.021-0.662-0.358-0.977-1.063-0.977
	c-4.807,0.011-9.613,0.011-14.432,0c-0.771-0.011-1.096,0.347-1.107,1.063c-0.01,0.521-0.021,1.03-0.021,1.541
	c0,21.182,0,42.384,0,63.576V104.54z M756.505,68.59c0-21.279,0-42.569,0-63.848c0-0.467-0.022-0.934,0-1.389
	c0.032-0.868-0.348-1.237-1.248-1.227c-4.72,0.021-9.43,0.021-14.149,0c-0.847,0-1.194,0.347-1.141,1.15c0.022,0.38,0,0.749,0,1.117
	c0,42.71,0,85.409,0,128.119c0,0.412,0.022,0.835,0,1.248c-0.01,0.694,0.294,1.02,0.999,1.01c4.808,0,9.625,0,14.442,0.01
	c0.761,0,1.085-0.347,1.085-1.085c0-0.51,0.012-1.02,0.012-1.529C756.505,110.975,756.505,89.782,756.505,68.59"/>
</svg>
